<?xml version="1.0" encoding="UTF-8"?>
<svg width="30px" height="16px" viewBox="0 0 30 16" version="1.1" xmlns="http://www.w3.org/2000/svg" xmlns:xlink="http://www.w3.org/1999/xlink">
    <!-- Generator: Sketch 60.1 (88133) - https://sketch.com -->
    <title>visits 2</title>
    <desc>Created with Sketch.</desc>
    <g id="Page-1" stroke="none" stroke-width="1" fill="none" fill-rule="evenodd">
        <g id="224" transform="translate(-292.000000, -2923.000000)" fill="#FFFFFF" fill-rule="nonzero">
            <g id="Group-20" transform="translate(210.000000, 2866.000000)">
                <g id="Group-10" transform="translate(72.000000, 40.000000)">
                    <g id="visits-2" transform="translate(10.003000, 17.000000)">
                        <g id="visits">
                            <path d="M29.7761719,7.41182353 C29.7088477,7.33617647 28.0961133,5.53829412 25.4850586,3.72494118 C21.9939258,1.30041176 18.3682031,0.0188823529 14.9999414,0.0188823529 C11.6316797,0.0188823529 8.00595703,1.30041176 4.51482422,3.72494118 C1.90371094,5.53829412 0.291035156,7.33617647 0.223710938,7.41182353 C-0.0745898437,7.74670588 -0.0745898437,8.25317647 0.223710938,8.58805882 C0.291035156,8.66370588 1.90376953,10.4615882 4.51482422,12.2749412 C8.00595703,14.6994706 11.6316797,15.981 14.9999414,15.981 C18.3682031,15.981 21.9939258,14.6994706 25.4850586,12.2749412 C28.0961719,10.4615882 29.7088477,8.66370588 29.7761719,8.58805882 C30.0744727,8.25311765 30.0744727,7.74670588 29.7761719,7.41182353 Z M5.55035156,10.8482353 C3.97207031,9.75617647 2.76691406,8.65223529 2.10503906,8.00029412 C3.24017578,6.88411765 5.97580078,4.43988235 9.48873047,2.97070588 C8.28398438,4.30005882 7.54869141,6.06541176 7.54869141,7.99994118 C7.54869141,9.93211765 8.28222656,11.6954706 9.48427734,13.0242941 C7.95726563,12.3867647 6.61353516,11.5839412 5.55035156,10.8482353 Z M14.9999414,13.7157059 C11.8605469,13.7157059 9.30644531,11.1515882 9.30644531,7.99994118 C9.30644531,4.84823529 11.8605469,2.28417647 14.9999414,2.28417647 C18.1393359,2.28417647 20.6934375,4.84823529 20.6934375,7.99994118 C20.6934375,11.1516471 18.1393359,13.7157059 14.9999414,13.7157059 Z M20.5111523,13.0291765 C21.7158984,11.6998235 22.4511914,9.93447059 22.4511914,7.99988235 C22.4511914,6.06770588 21.7176562,4.30435294 20.5156055,2.97552941 C22.0426172,3.61305882 23.3863477,4.41588235 24.4495313,5.15158824 C26.0276953,6.24352941 27.2327344,7.34741176 27.8948438,7.99952941 C26.759707,9.11576471 24.024082,11.56 20.5111523,13.0291765 Z" id="Shape"></path>
                            <path d="M14.9999414,5.15623529 C13.4380664,5.15623529 12.1673438,6.43194118 12.1673438,7.99994118 C12.1673438,9.56794118 13.4380664,10.8436471 14.9999414,10.8436471 C15.485332,10.8436471 15.8788477,10.4485882 15.8788477,9.96129412 C15.8788477,9.71764706 15.7804688,9.49705882 15.6213867,9.33735294 C15.4623633,9.17770588 15.2426367,9.07894118 14.9999414,9.07894118 C14.4073242,9.07894118 13.9251563,8.59488235 13.9251563,7.99994118 C13.9251563,7.405 14.4073242,6.92094118 14.9999414,6.92094118 C15.5925586,6.92094118 16.0747266,7.405 16.0747266,7.99994118 C16.0747266,8.24358824 16.1731055,8.46417647 16.3321875,8.62388235 C16.4912109,8.78352941 16.7109375,8.88229412 16.9536328,8.88229412 C17.4390234,8.88229412 17.8325391,8.48723529 17.8325391,7.99994118 C17.8325391,6.43194118 16.5618164,5.15623529 14.9999414,5.15623529 Z" id="Path"></path>
                        </g>
                    </g>
                </g>
            </g>
        </g>
    </g>
</svg>