<?xml version="1.0" encoding="UTF-8"?>
<svg width="203px" height="185px" viewBox="0 0 203 185" version="1.1" xmlns="http://www.w3.org/2000/svg" xmlns:xlink="http://www.w3.org/1999/xlink">
    <!-- Generator: Sketch 60.1 (88133) - https://sketch.com -->
    <title>comment-2 2</title>
    <desc>Created with Sketch.</desc>
    <g id="Page-1" stroke="none" stroke-width="1" fill="none" fill-rule="evenodd">
        <g id="224" transform="translate(-215.000000, -5278.000000)" fill-rule="nonzero">
            <g id="Group-9" transform="translate(215.000000, 5278.000000)">
                <g id="Group_11143">
                    <g id="comment-2-2">
                        <g transform="translate(-58.000000, 0.000000)" id="comment-2">
                            <g>
                                <path d="M27.6059582,152.305535 L14.1713603,152.305535 L23.6709944,143.649215 C28.7930879,138.981827 31.9916604,132.911213 32.8515874,126.325757 C10.9167701,113.208931 0,94.2067414 0,74.2857447 C0,37.5338215 37.0692365,0.185248705 95.1239575,0.185248705 C156.626548,0.185248705 189.605381,34.55294 189.605381,71.0658653 C189.605381,107.819479 156.2782,142.164183 95.1239575,142.164183 C84.4112253,142.164183 73.2325447,140.861019 63.2521231,138.470026 C53.8044259,147.300102 41.0034584,152.305535 27.6059582,152.305535 Z" id="Path" fill="#43B8F0" opacity="0.043625"></path>
                                <path d="M99.0005771,184.593691 L85.5659791,184.593691 L95.0656132,175.937371 C100.187707,171.269982 103.386279,165.199369 104.246206,158.613912 C82.311389,145.497087 71.3946188,126.494897 71.3946188,106.5739 C71.3946188,69.821977 108.463855,32.4734043 166.518576,32.4734043 C228.021167,32.4734043 261,66.8410955 261,103.354021 C261,140.107634 227.672819,174.452338 166.518576,174.452338 C155.805844,174.452338 144.627164,173.149175 134.646742,170.758182 C125.199045,179.588257 112.398077,184.593691 99.0005771,184.593691 Z" id="Path-Copy" fill="#237CAC" opacity="0.035244"></path>
                            </g>
                        </g>
                    </g>
                </g>
            </g>
        </g>
    </g>
</svg>