<svg xmlns="http://www.w3.org/2000/svg" width="16" height="16" viewBox="0 0 16 16">
  <path id="Path_36889" data-name="Path 36889" d="M831.289,6a7.948,7.948,0,0,1-5.657-2.343A7.948,7.948,0,0,1,823.289-2a7.948,7.948,0,0,1,2.343-5.657A7.948,7.948,0,0,1,831.289-10a7.948,7.948,0,0,1,5.657,2.343A7.948,7.948,0,0,1,839.289-2a7.968,7.968,0,0,1-1.355,4.441.9.9,0,1,1-1.5-1A6.171,6.171,0,0,0,837.484-2a6.2,6.2,0,0,0-6.2-6.2,6.2,6.2,0,0,0-6.2,6.2,6.2,6.2,0,0,0,6.2,6.2,6.184,6.184,0,0,0,3.2-.892.9.9,0,0,1,.935,1.543A7.988,7.988,0,0,1,831.289,6Zm-.03-3.338a.9.9,0,1,1,.9-.9A.9.9,0,0,1,831.259,2.662Zm0-2.105a.9.9,0,0,1-.9-.9v-.867a1.423,1.423,0,0,1,1.128-1.4,1,1,0,0,0,.8-1.016,1.014,1.014,0,0,0-.981-.96h-.041a1.033,1.033,0,0,0-.721.287.972.972,0,0,0-.3.705.9.9,0,0,1-.9.9.9.9,0,0,1-.9-.9,2.761,2.761,0,0,1,.854-2.005,2.825,2.825,0,0,1,1.97-.792l.112,0a2.826,2.826,0,0,1,2.716,2.694,2.817,2.817,0,0,1-1.923,2.768v.581A.9.9,0,0,1,831.259.556Z" transform="translate(-823.289 10)" fill="#40c7e0"/>
</svg>
