<svg xmlns="http://www.w3.org/2000/svg" xmlns:xlink="http://www.w3.org/1999/xlink" width="30.94" height="31" viewBox="0 0 30.94 31">
  <defs>
    <linearGradient id="linear-gradient" x1="0.312" y1="0.312" x2="0.995" y2="0.995" gradientUnits="objectBoundingBox">
      <stop offset="0" stop-color="#62e1fb"/>
      <stop offset="1" stop-color="#00a2f3"/>
    </linearGradient>
    <linearGradient id="linear-gradient-2" x1="0.691" y1="0.648" x2="-0.191" y2="-0.085" gradientUnits="objectBoundingBox">
      <stop offset="0" stop-color="#00a2f3" stop-opacity="0"/>
      <stop offset="1" stop-color="#0075cd"/>
    </linearGradient>
    <linearGradient id="linear-gradient-3" x1="0.532" y1="0.628" x2="0.056" y2="0.051" xlink:href="#linear-gradient-2"/>
  </defs>
  <g id="question_2" data-name="question 2" transform="translate(0 0)">
    <g id="question">
      <path id="Path" d="M15.229,0A15.431,15.431,0,0,1,30.937,15.193a15.6,15.6,0,0,1-.36,3.659,28.165,28.165,0,0,0-.7,6.053v3.939a1.092,1.092,0,0,1-1.091,1.093H24.856a28.006,28.006,0,0,0-6.041.7A15.5,15.5,0,1,1,15.229,0Z" transform="translate(0 0)" fill="url(#linear-gradient)"/>
      <path id="Path-2" data-name="Path" d="M20.046,12.936c-.01.046-.019.093-.03.139a28.158,28.158,0,0,0-.7,6.053v3.939a1.092,1.092,0,0,1-1.09,1.092H14.3q-.441,0-.88.016L3.374,14.114a1.336,1.336,0,0,1-.258-.943q0-2.986,1.522-4.3c.1-.094.308-.261.617-.5C5.17,8.3.394,3.5.339,3.451A1,1,0,0,1,0,2.651Q0,1.742,1.278.871A5.635,5.635,0,0,1,4.52,0,5.619,5.619,0,0,1,8.4,1.268Z" transform="translate(10.56 5.777)" fill="url(#linear-gradient-2)"/>
      <path id="Path-3" data-name="Path" d="M9.884,7.647a28.714,28.714,0,0,0-3.736.512L.443,2.444A1.362,1.362,0,0,1,0,1.438,1.35,1.35,0,0,1,.443.42,1.532,1.532,0,0,1,1.538,0,1.719,1.719,0,0,1,2.695.42Z" transform="translate(13.284 22.348)" fill="url(#linear-gradient-3)"/>
      <path id="Shape" d="M3.168,19.014a1.376,1.376,0,0,1,0-2.024,1.533,1.533,0,0,1,1.094-.419,1.722,1.722,0,0,1,1.157.419,1.294,1.294,0,0,1,0,2.024,1.688,1.688,0,0,1-1.157.431A1.5,1.5,0,0,1,3.168,19.014Zm.206-4.9a1.341,1.341,0,0,1-.258-.943q0-2.986,1.523-4.3.169-.157.719-.576a8.022,8.022,0,0,0,.819-.694A9.263,9.263,0,0,0,6.8,6.872a3.085,3.085,0,0,0,.527-1A3.838,3.838,0,0,0,7.5,4.737a2.429,2.429,0,0,0-.813-1.951,3.36,3.36,0,0,0-2.252-.695,3.57,3.57,0,0,0-1.421.254,1.964,1.964,0,0,0-.822.573,3.7,3.7,0,0,1-.522.573.9.9,0,0,1-.6.253,1.092,1.092,0,0,1-.73-.293A1,1,0,0,1,0,2.651Q0,1.742,1.278.87A5.644,5.644,0,0,1,4.521,0,5.618,5.618,0,0,1,8.4,1.267,4.141,4.141,0,0,1,9.82,4.5a5.115,5.115,0,0,1-.236,1.555A4.753,4.753,0,0,1,8.9,7.41q-.445.614-.8,1.02a10.736,10.736,0,0,1-.89.888q-.537.483-.64.588a2.965,2.965,0,0,0-.956,1.438,10.019,10.019,0,0,0-.181,2.221q0,.811-1.2.81A1.174,1.174,0,0,1,3.374,14.114Z" transform="translate(10.56 5.777)" fill="#fff"/>
    </g>
  </g>
</svg>
