<svg xmlns="http://www.w3.org/2000/svg" width="149.596" height="40" viewBox="0 0 149.596 40">
  <g id="Group_10743" data-name="Group 10743" transform="translate(-960.662 387.092)">
    <path id="Path_36536" data-name="Path 36536" d="M973.859-382.437a17.965,17.965,0,0,0-7.927,4.623,17.944,17.944,0,0,0-5.27,12.654v.149a17.938,17.938,0,0,0,5.27,12.648,17.943,17.943,0,0,0,12.726,5.271,17.943,17.943,0,0,0,12.725-5.271,17.942,17.942,0,0,0,5.271-12.725,17.943,17.943,0,0,0-5.271-12.726,17.985,17.985,0,0,0-7.926-4.623l-.135-.038v-2.8a1.859,1.859,0,0,0-.488-1.255,1.685,1.685,0,0,0-1.246-.559h-5.859a1.684,1.684,0,0,0-1.244.562,1.855,1.855,0,0,0-.49,1.253v2.8l-.135.038Zm-2.227,4.319a2.915,2.915,0,0,0-2.148.966,3.275,3.275,0,0,0-.772,1.457l-.05.206-.2-.078c-.5-.2-.99-.41-1.469-.65l-.227-.113.322-.326a16.2,16.2,0,0,1,6.664-4.044l.239-.075v2.656Zm11.69-1.78a15.929,15.929,0,0,0-1.638-.4v2.185h-6.051v-7.336h6.051v2.621l-.213-.033a17.994,17.994,0,0,0-2.813-.219,18.079,18.079,0,0,0-2.171.13v1.65a16.41,16.41,0,0,1,2.171-.142,16.958,16.958,0,0,1,2.873.252l.842.172.66.169.527.154a16.087,16.087,0,0,1,6.666,4.045l.321.325-.228.113c-.479.24-.97.455-1.47.65l-.2.078-.05-.2a3.362,3.362,0,0,0-.772-1.458,2.9,2.9,0,0,0-2.151-.966h-2.359v-1.78Zm5.494,6.087a20.159,20.159,0,0,0,2.673-1.174l.139-.074.094.126a16.286,16.286,0,0,1,3.263,8.834l.011.2h-6.3v-7.862l.122-.044Zm-.122,9.539H995l-.011.194a16.284,16.284,0,0,1-3.264,8.835l-.1.126-.139-.075a20.159,20.159,0,0,0-2.671-1.176l-.122-.044v-7.861Zm-18.436-8.022c-.55-.15-1.1-.318-1.638-.506v6.9h-6.3l.011-.2a16.3,16.3,0,0,1,3.265-8.834l.1-.126.139.076a18.951,18.951,0,0,0,2.667,1.174l.529.183.762.24.7.2c.24.064.48.126.722.183a32.3,32.3,0,0,0,7.446.84,32.3,32.3,0,0,0,7.443-.839l.1-.026v-1.69l-.475.122a30.686,30.686,0,0,1-7.068.794,30.69,30.69,0,0,1-7.07-.794q-.6-.142-1.188-.313l-.149-.042.017-.154a1.655,1.655,0,0,1,.416-.937,1.294,1.294,0,0,1,.947-.434H985.68a1.3,1.3,0,0,1,.949.434,1.658,1.658,0,0,1,.427,1.128v17.992l-.231-.062q-.36-.1-.722-.182a32.37,32.37,0,0,0-7.444-.839,32.392,32.392,0,0,0-7.446.839l-.108.026v1.69l.486-.124a30.733,30.733,0,0,1,7.069-.794,30.886,30.886,0,0,1,7.066.794c.4.094.8.2,1.19.312l1.174.373.677.249.082.032c.5.193.991.412,1.471.651l.228.114-.322.324a16.27,16.27,0,0,1-11.567,4.793,16.226,16.226,0,0,1-11.567-4.793l-.321-.325.227-.114c.479-.238.971-.454,1.469-.649l.2-.078.05.2a3.433,3.433,0,0,0,.771,1.457,2.914,2.914,0,0,0,2.148.966H985.68a2.916,2.916,0,0,0,2.151-.966,3.253,3.253,0,0,0,.548-.817c-.518-.193-1.045-.363-1.576-.517a1.586,1.586,0,0,1-.173.227,1.3,1.3,0,0,1-.95.434H971.632a1.293,1.293,0,0,1-.947-.434,1.671,1.671,0,0,1-.426-1.129V-363.3H968.62v6.891l-.122.044a20.084,20.084,0,0,0-2.671,1.175l-.139.074-.094-.126a16.286,16.286,0,0,1-3.265-8.833l-.011-.2H972.8v1.039c0,.05.066.076.108.076h.382c.04,0,.1-.019.108-.062l.394-1.377,4.457.26-.86,5.125c0,.051.066.07.109.07h.449a.12.12,0,0,0,.1-.052l2.729-5.134h3.1a1.48,1.48,0,0,0,1.189-.446.537.537,0,0,0,.1-.311.552.552,0,0,0-.1-.308l0-.006a1.477,1.477,0,0,0-1.187-.446h-3.1l-2.726-5.13a.115.115,0,0,0-.106-.058h-.438l-.033,0c-.039,0-.1.036-.088.084l.86,5.109-4.457.26-.393-1.374c-.01-.046-.068-.068-.11-.068h-.382c-.042,0-.11.026-.11.078v1.038h-2.546v-6.389Z" transform="translate(0 0)" fill="#40c7e0" fill-rule="evenodd"/>
    <path id="Path_36537" data-name="Path 36537" d="M1060.91-355.909a.3.3,0,0,0,.29.29h1.422a.3.3,0,0,0,.291-.29v-10.128a.3.3,0,0,0-.291-.291H1061.2a.3.3,0,0,0-.29.291v10.128Zm-35.418,0a.3.3,0,0,0,.29.29h1.423a.3.3,0,0,0,.29-.29v-10.128a.3.3,0,0,0-.29-.291h-1.423a.3.3,0,0,0-.29.291v10.128Zm50.641-3.366,1.5-3.367h.046l1.53,3.367Zm-3.274,3.656h1.33a.462.462,0,0,0,.444-.306l.75-1.652h4.575l.75,1.652a.439.439,0,0,0,.443.306h1.331a.27.27,0,0,0,.261-.4l-4.713-10.3a.26.26,0,0,0-.26-.169h-.153a.274.274,0,0,0-.26.169l-4.758,10.3a.27.27,0,0,0,.261.4Zm-7.711-1.04a4.915,4.915,0,0,0,3.365,1.194,3.232,3.232,0,0,0,3.519-3.03c0-1.974-1.714-2.861-3.2-3.458-1.239-.5-1.806-.994-1.806-1.714a1.218,1.218,0,0,1,1.346-1.07,5.038,5.038,0,0,1,2.126.841.4.4,0,0,0,.536-.183l.581-.872a.379.379,0,0,0-.091-.5,5.388,5.388,0,0,0-3.06-1.026c-2.433,0-3.442,1.576-3.442,2.938,0,1.805,1.438,2.723,2.876,3.3,1.286.52,1.943,1.056,1.943,1.836a1.278,1.278,0,0,1-1.393,1.178,5.068,5.068,0,0,1-2.31-.948.354.354,0,0,0-.52.107l-.551.948c-.138.245-.062.322.077.459Zm-11.047,1.025a.276.276,0,0,0,.26.169h.154a.275.275,0,0,0,.26-.169l4.743-10.3a.271.271,0,0,0-.26-.4H1057.7a.282.282,0,0,0-.26.169l-2.938,6.578h-.106l-2.938-6.578a.281.281,0,0,0-.26-.169h-1.561a.27.27,0,0,0-.26.4l4.727,10.3Zm-13.356-.352a.362.362,0,0,0,.367.367h1.346a.372.372,0,0,0,.367-.367v-4.666l3.994,4.926a.332.332,0,0,0,.275.106h1.668a.335.335,0,0,0,.275-.535l-4.284-5.126,3.993-4.5a.325.325,0,0,0-.244-.551h-1.531a.365.365,0,0,0-.29.154l-3.856,4.345v-4.131a.372.372,0,0,0-.367-.367h-1.346a.363.363,0,0,0-.367.367v9.975Zm-11.246-4.972a5.485,5.485,0,0,0,5.523,5.493,5.251,5.251,0,0,0,3.718-1.484.291.291,0,0,0,.016-.413l-.949-.98a.283.283,0,0,0-.383,0,3.668,3.668,0,0,1-2.341.872,3.464,3.464,0,0,1-3.427-3.534,3.469,3.469,0,0,1,3.412-3.565,3.623,3.623,0,0,1,2.356.9.245.245,0,0,0,.383,0l.933-.964a.284.284,0,0,0-.015-.428,5.175,5.175,0,0,0-3.7-1.423,5.511,5.511,0,0,0-5.523,5.523Zm-11.076-.413v-3.075h1.774a1.526,1.526,0,0,1,1.576,1.484,1.577,1.577,0,0,1-1.576,1.591Zm-1.99,5.462a.291.291,0,0,0,.291.29h1.407a.3.3,0,0,0,.291-.29v-3.6h1.912a3.441,3.441,0,0,0,3.412-3.442,3.423,3.423,0,0,0-3.427-3.382h-3.6a.291.291,0,0,0-.291.291v10.128Z" transform="translate(-11.154 -4.122)" fill="#4c5b67"/>
    <path id="Path_36538" data-name="Path 36538" d="M1126.3-355.97a.281.281,0,0,0,.292.351h1.377a.3.3,0,0,0,.275-.229l.887-5.8h.046l2.707,6.012a.275.275,0,0,0,.26.169h.275a.26.26,0,0,0,.26-.169l2.677-6.012h.046l.9,5.8a.334.334,0,0,0,.291.229h1.392a.265.265,0,0,0,.275-.351l-1.8-10.282a.259.259,0,0,0-.276-.23h-.245a.266.266,0,0,0-.26.153l-3.365,7.222h-.046l-3.366-7.222a.28.28,0,0,0-.26-.153h-.245a.258.258,0,0,0-.275.23L1126.3-355.97Zm-10.311-4.988a3.538,3.538,0,0,1,3.5-3.534,3.552,3.552,0,0,1,3.519,3.534,3.526,3.526,0,0,1-3.519,3.5,3.513,3.513,0,0,1-3.5-3.5Zm-1.99,0a5.46,5.46,0,0,0,5.493,5.493,5.472,5.472,0,0,0,5.508-5.493,5.5,5.5,0,0,0-5.508-5.523,5.486,5.486,0,0,0-5.493,5.523Zm-10.434,0a5.485,5.485,0,0,0,5.523,5.493,5.252,5.252,0,0,0,3.717-1.484.291.291,0,0,0,.016-.413l-.949-.98a.283.283,0,0,0-.383,0,3.667,3.667,0,0,1-2.341.872,3.464,3.464,0,0,1-3.427-3.534,3.469,3.469,0,0,1,3.412-3.565,3.62,3.62,0,0,1,2.356.9.245.245,0,0,0,.383,0l.933-.964a.284.284,0,0,0-.015-.428,5.178,5.178,0,0,0-3.7-1.423,5.511,5.511,0,0,0-5.523,5.523Zm-2.825,4.238a1.26,1.26,0,0,0,1.254,1.254,1.274,1.274,0,0,0,1.27-1.254,1.287,1.287,0,0,0-1.27-1.27,1.273,1.273,0,0,0-1.254,1.27Z" transform="translate(-28.016 -4.122)" fill="#40c7e0"/>
  </g>
</svg>
