<svg xmlns="http://www.w3.org/2000/svg" viewBox="0 0 145 66" fill="none" x="0px" y="0px" preserveAspectRatio="none">
<path d="M120.235 4.28147C120.235 4.35817 118.371 3.74457 118.293 3.66787C115.963 2.97757 113.554 2.51738 111.068 2.05718C104.931 0.983387 98.6384 0.906687 92.3457 1.06009C67.5635 1.82708 39.5961 5.89216 17.4553 19.5447C9.99734 24.1466 -1.1896 32.5836 1.37407 43.4749C2.46169 48.0002 6.96755 51.375 10.3858 53.5226C18.6983 58.7381 28.3315 61.1925 37.7316 62.8032C65.466 67.4819 98.1722 65.0275 124.197 52.142C127.616 50.4546 130.956 48.4604 133.986 46.0827C136.472 44.0885 138.803 41.7875 140.667 39.103C153.485 20.3117 126.062 8.19314 113.632 4.81836C109.359 3.66787 108.116 3.51447 103.766 2.74748" stroke="#40C7E0" stroke-width="2" stroke-miterlimit="10" stroke-linecap="round" stroke-linejoin="round"/>
</svg>