<svg width="1875" height="472" viewBox="0 0 1875 472" fill="none" xmlns="http://www.w3.org/2000/svg">
<g clip-path="url(#clip0)">
<rect width="1875" height="472" fill="url(#paint0_linear)"/>
<path fill-rule="evenodd" clip-rule="evenodd" d="M1118.39 -115.234C1227.74 -144.557 1337.81 -88.2849 1364.25 10.455C1390.68 109.195 1323.47 213.01 1214.12 242.335C1180.24 251.422 1146.28 252.289 1114.77 246.221C1095.01 273.825 1066.11 294.926 1031.03 304.336C1022.65 306.586 1014.09 308.111 1005.46 308.894C1023.61 277.473 1030.11 239.071 1020.87 200.9C995.883 178.848 977.243 150.199 968.26 116.647C941.825 17.9071 1009.04 -85.9084 1118.39 -115.233L1118.39 -115.234ZM648.389 117.017L677.698 106.995L678.953 106.573L679.571 106.368L680.791 105.97L681.392 105.776L682.578 105.401L683.164 105.219L684.317 104.866C684.508 104.808 684.698 104.752 684.887 104.695L686.01 104.364L686.563 104.204L687.656 103.895L688.729 103.599L689.259 103.457L690.304 103.181L690.82 103.049L691.838 102.795L692.838 102.554C693.169 102.476 693.497 102.4 693.822 102.326L694.788 102.111L695.266 102.009L696.21 101.813L697.137 101.63L697.596 101.543L698.501 101.378L699.394 101.226L699.835 101.154L700.707 101.019C700.995 100.976 701.281 100.936 701.566 100.895L702.412 100.783L702.831 100.732L703.661 100.637L704.479 100.553L704.884 100.514L705.686 100.447L706.479 100.388C707.005 100.354 707.523 100.326 708.037 100.305L708.803 100.277L709.183 100.267L709.938 100.254L710.685 100.25L711.426 100.256L712.16 100.271L712.525 100.282L713.252 100.311L713.974 100.347L714.69 100.392L715.403 100.446L716.113 100.508L716.467 100.541L717.173 100.615L717.525 100.654L718.226 100.739L718.928 100.831L719.628 100.93L720.327 101.036C731.635 102.804 741.729 107.637 750.2 115.339L750.721 115.817L751.237 116.301L751.749 116.789L752.256 117.284L752.507 117.533L753.008 118.037L753.503 118.547L753.748 118.806L754.237 119.328L754.723 119.858L755.204 120.397L755.682 120.945L755.92 121.223L756.392 121.786C756.471 121.881 756.549 121.976 756.627 122.072L757.095 122.651C757.251 122.846 757.405 123.042 757.56 123.241L758.022 123.843L758.481 124.457L758.939 125.083L759.166 125.403L759.62 126.049C759.771 126.267 759.921 126.487 760.071 126.71L760.521 127.386C760.671 127.613 760.82 127.844 760.969 128.076L761.415 128.782L761.638 129.141L762.083 129.871C762.304 130.24 762.525 130.615 762.746 130.998L763.189 131.77L763.63 132.561L763.849 132.963L764.29 133.782L764.729 134.62L764.95 135.047L765.389 135.915C765.462 136.061 765.536 136.208 765.609 136.356L766.049 137.255C766.195 137.558 766.342 137.865 766.489 138.174L766.929 139.117L767.37 140.08L767.813 141.067L768.255 142.078L768.7 143.111L769.145 144.169L769.369 144.707L769.817 145.803L770.266 146.923L770.717 148.071L771.171 149.244L771.398 149.841L771.856 151.055L772.315 152.296L790.596 202.565L790.743 202.512C791.216 204.116 791.738 205.705 792.31 207.276C802.671 235.764 827.643 254.706 855.685 258.717C847.776 270.641 836.122 280.231 821.648 285.503L820.86 285.782L820.864 285.789L738.025 315.964L736.496 316.513L735.003 317.043L733.545 317.552L732.121 318.041L730.733 318.511L729.377 318.961L728.054 319.391C727.618 319.533 727.187 319.67 726.762 319.804L725.501 320.198L724.882 320.388L723.665 320.755C723.465 320.814 723.266 320.874 723.067 320.931L721.894 321.272L720.749 321.596L719.63 321.902L719.08 322.049L718 322.331L716.945 322.597L715.913 322.847L714.905 323.081L713.92 323.3C713.594 323.371 713.272 323.438 712.955 323.504L712.012 323.694L711.548 323.783L710.634 323.951L710.184 324.031L709.299 324.179L708.431 324.312L707.58 324.434C707.299 324.473 707.02 324.509 706.745 324.543L705.925 324.639L705.12 324.723L704.329 324.795L703.938 324.828L703.165 324.883L702.404 324.927L701.653 324.961L700.914 324.983C700.668 324.99 700.425 324.994 700.183 324.997L699.461 325H699.102L698.391 324.987L697.687 324.967L697.336 324.954L696.64 324.921C696.525 324.915 696.409 324.908 696.294 324.901L695.604 324.856L694.917 324.803L694.232 324.743C694.119 324.732 694.005 324.721 693.892 324.709L693.21 324.639L692.188 324.52L691.505 324.432L690.822 324.339C679.41 322.736 669.175 318.008 660.555 310.354L659.785 309.663L659.278 309.198L658.777 308.73L658.281 308.256L657.789 307.777L657.301 307.292L656.818 306.799L656.338 306.3L655.862 305.79L655.387 305.272L654.916 304.743L654.449 304.202C654.371 304.111 654.293 304.02 654.215 303.928L653.75 303.369C653.672 303.275 653.595 303.18 653.518 303.085L653.055 302.506L652.595 301.913L652.135 301.305C652.058 301.202 651.981 301.099 651.905 300.995L651.446 300.362C651.369 300.254 651.293 300.147 651.217 300.039L650.758 299.381L650.3 298.703L649.841 298.006C649.449 297.401 649.066 296.791 648.692 296.175L648.229 295.405C648.152 295.274 648.075 295.143 647.998 295.011L647.534 294.206L647.067 293.377C646.989 293.236 646.911 293.094 646.833 292.953L646.363 292.086L645.891 291.192L645.415 290.273L644.936 289.326L644.695 288.841L644.211 287.85L643.722 286.83L643.23 285.778L642.732 284.696L642.482 284.143L641.977 283.012L641.723 282.433L641.21 281.253L640.692 280.036C640.605 279.83 640.517 279.623 640.43 279.415L639.902 278.145L639.369 276.84L638.829 275.496L638.281 274.114L637.727 272.693L637.164 271.233L636.594 269.731L636.016 268.188L609.959 198.206C597.882 165.773 614.364 129.682 646.772 117.595C647.308 117.395 647.847 117.203 648.389 117.017Z" fill="white" fill-opacity="0.8"/>
<path fill-rule="evenodd" clip-rule="evenodd" d="M657.442 124.785L686.788 114.752L688.045 114.329L688.664 114.124L689.885 113.726L690.487 113.532L691.675 113.157L692.261 112.974L693.416 112.621C693.607 112.563 693.797 112.507 693.986 112.45L695.111 112.118L695.665 111.958L696.759 111.648L697.834 111.352L698.364 111.21L699.41 110.934L699.927 110.802L700.946 110.547L701.948 110.306C702.279 110.228 702.607 110.152 702.932 110.078L703.9 109.863L704.379 109.76L705.323 109.564L706.252 109.381L706.712 109.294L707.618 109.129L708.512 108.976L708.953 108.904L709.826 108.77C710.114 108.726 710.401 108.686 710.686 108.646L711.534 108.534L711.954 108.482L712.784 108.387L713.603 108.303L714.009 108.264L714.812 108.197L715.606 108.138C716.132 108.104 716.651 108.075 717.165 108.054L717.933 108.027L718.313 108.017L719.069 108.003L719.817 108L720.559 108.006L721.294 108.021L721.66 108.032L722.387 108.06L723.11 108.097L723.827 108.142L724.541 108.196L725.252 108.258L725.606 108.291L726.313 108.365L726.666 108.404L727.368 108.489L728.07 108.581L728.771 108.68L729.471 108.786C740.793 110.557 750.9 115.395 759.382 123.106L759.904 123.584L760.421 124.069L760.933 124.557L761.441 125.052L761.691 125.302L762.193 125.806L762.689 126.317L762.935 126.577L763.424 127.099L763.91 127.63L764.393 128.169L764.871 128.718L765.109 128.996L765.582 129.56C765.661 129.655 765.739 129.75 765.817 129.846L766.285 130.426C766.442 130.62 766.596 130.817 766.751 131.016L767.214 131.618L767.674 132.233L768.132 132.861L768.359 133.18L768.814 133.828C768.965 134.045 769.115 134.266 769.266 134.489L769.716 135.166C769.866 135.393 770.015 135.624 770.164 135.856L770.612 136.563L770.835 136.923L771.279 137.653C771.501 138.023 771.723 138.399 771.944 138.782L772.387 139.555L772.829 140.347L773.048 140.749L773.49 141.569L773.93 142.408L774.15 142.835L774.59 143.704C774.664 143.851 774.737 143.998 774.81 144.146L775.25 145.046C775.398 145.349 775.544 145.657 775.691 145.966L776.132 146.91L776.574 147.874L777.017 148.862L777.46 149.874L777.906 150.909L778.351 151.968L778.575 152.506L779.023 153.603L779.473 154.725L779.925 155.874L780.379 157.048L780.607 157.645L781.065 158.861L781.525 160.104L799.829 210.429L799.976 210.375C800.449 211.981 800.973 213.572 801.545 215.145C811.919 243.665 836.923 262.628 865 266.644C857.081 278.58 845.413 288.182 830.92 293.459L830.131 293.739L830.135 293.745L747.192 323.953L745.66 324.504L744.166 325.034L742.706 325.544L741.281 326.033L739.89 326.503L738.533 326.954L737.208 327.385C736.771 327.526 736.34 327.664 735.914 327.798L734.652 328.192L734.032 328.383L732.814 328.75C732.613 328.81 732.414 328.869 732.215 328.927L731.04 329.268L729.893 329.592L728.773 329.899L728.222 330.046L727.141 330.328L726.085 330.594L725.051 330.844L724.042 331.078L723.056 331.298C722.73 331.369 722.408 331.436 722.09 331.503L721.145 331.692L720.681 331.782L719.766 331.95L719.315 332.03L718.429 332.178L717.56 332.312L716.708 332.434C716.427 332.472 716.148 332.508 715.872 332.542L715.051 332.639L714.245 332.722L713.453 332.795L713.061 332.828L712.287 332.883L711.526 332.927L710.774 332.961L710.033 332.983C709.788 332.99 709.544 332.994 709.302 332.997L708.579 333H708.219L707.508 332.987L706.802 332.967L706.451 332.954L705.755 332.92C705.639 332.914 705.523 332.908 705.408 332.901L704.717 332.856L704.029 332.803L703.344 332.742C703.23 332.731 703.116 332.72 703.003 332.709L702.32 332.639L701.296 332.519L700.613 332.431L699.929 332.338C688.503 330.734 678.255 326 669.624 318.338L668.853 317.646L668.345 317.181L667.844 316.711L667.347 316.237L666.854 315.758L666.366 315.273L665.882 314.779L665.401 314.279L664.925 313.768L664.45 313.25L663.978 312.72L663.51 312.179C663.432 312.088 663.354 311.996 663.276 311.905L662.81 311.345C662.733 311.25 662.655 311.156 662.578 311.06L662.115 310.481L661.653 309.887L661.193 309.279C661.116 309.175 661.039 309.072 660.963 308.968L660.503 308.334C660.426 308.227 660.35 308.119 660.274 308.011L659.815 307.352L659.356 306.674L658.896 305.976C658.504 305.371 658.12 304.76 657.746 304.143L657.283 303.372C657.205 303.241 657.128 303.109 657.051 302.978L656.586 302.171L656.119 301.341C656.041 301.2 655.963 301.059 655.885 300.917L655.414 300.05L654.941 299.155L654.465 298.234L653.985 297.286L653.744 296.801L653.259 295.808L652.77 294.788L652.277 293.735L651.778 292.651L651.528 292.097L651.023 290.965L650.768 290.386L650.254 289.204L649.736 287.986C649.648 287.78 649.561 287.573 649.474 287.364L648.945 286.093L648.411 284.786L647.87 283.441L647.322 282.057L646.767 280.635L646.203 279.173L645.633 277.669L645.054 276.125L618.964 206.065C606.872 173.595 623.375 137.464 655.823 125.364C656.36 125.164 656.9 124.971 657.442 124.785V124.785Z" stroke="black" stroke-opacity="0.08" stroke-width="0.835398" stroke-linecap="round" stroke-linejoin="round"/>
<path fill-rule="evenodd" clip-rule="evenodd" d="M1853.52 -201.346C1860.41 -193.671 1864.72 -184.557 1866.29 -174.395L1866.42 -173.496L1866.55 -172.563L1866.62 -171.942L1866.69 -171.321L1866.75 -170.699L1866.81 -170.075L1866.86 -169.449L1866.9 -168.821L1866.94 -168.188L1866.97 -167.551C1866.97 -167.444 1866.97 -167.338 1866.98 -167.231L1866.99 -166.585C1866.99 -166.477 1867 -166.369 1867 -166.26V-165.606C1867 -165.277 1866.99 -164.945 1866.99 -164.61L1866.97 -163.935L1866.95 -163.594L1866.92 -162.905L1866.88 -162.206L1866.82 -161.496L1866.76 -160.775L1866.68 -160.041L1866.59 -159.293L1866.55 -158.915L1866.44 -158.146L1866.33 -157.363C1866.27 -156.967 1866.2 -156.565 1866.13 -156.157L1865.98 -155.333L1865.82 -154.492L1865.65 -153.631L1865.47 -152.754C1865.4 -152.457 1865.34 -152.157 1865.27 -151.854L1865.06 -150.935L1864.94 -150.468L1864.71 -149.516L1864.46 -148.543L1864.2 -147.546L1863.92 -146.526L1863.62 -145.482L1863.31 -144.412L1862.99 -143.317L1862.64 -142.194L1862.28 -141.044L1861.91 -139.866C1861.85 -139.668 1861.78 -139.468 1861.72 -139.267L1861.31 -138.046L1860.89 -136.794L1860.46 -135.513L1860 -134.2L1859.53 -132.854L1859.04 -131.477L1858.53 -130.065L1821.7 -29.0116C1821.53 -28.5352 1821.35 -28.0654 1821.18 -27.6023L1820.42 -25.5595L1819.67 -23.5985L1819.18 -22.3364L1818.7 -21.1085L1818.22 -19.9157L1817.98 -19.3306L1817.51 -18.188L1817.05 -17.0763L1816.59 -15.9972L1816.13 -14.9482L1815.68 -13.9301L1815.24 -12.9405C1815.16 -12.7783 1815.09 -12.617 1815.01 -12.4565L1814.57 -11.5103L1814.35 -11.0472L1813.92 -10.142L1813.49 -9.26263L1813.06 -8.41006L1812.63 -7.5809L1812.42 -7.17551L1811.99 -6.38312L1811.78 -5.99609L1811.36 -5.23798L1811.15 -4.86688L1810.73 -4.14218L1810.31 -3.43753L1810.11 -3.09317L1809.69 -2.41861L1809.48 -2.08844L1809.07 -1.44232L1808.86 -1.12637L1808.45 -0.506165L1808.24 -0.202728L1807.83 0.390717C1807.76 0.489349 1807.69 0.586304 1807.62 0.683289L1807.2 1.25418L1806.79 1.81085L1806.37 2.35333L1806.16 2.61914L1805.74 3.14236L1805.32 3.65393L1804.89 4.15378L1804.47 4.64276C1804.4 4.72385 1804.33 4.80408 1804.25 4.88348L1803.82 5.35825L1803.39 5.82468L1802.96 6.28271L1802.52 6.7341L1802.07 7.17712L1801.63 7.61594L1801.18 8.04974L1800.49 8.69168L1799.8 9.32693C1799.72 9.39731 1799.64 9.4675 1799.56 9.53757C1791.73 16.5471 1782.4 20.8919 1771.99 22.3789L1771.37 22.465L1770.45 22.5837L1769.83 22.6556L1768.91 22.7517L1768.29 22.8077L1767.67 22.8579L1767.36 22.8805L1766.42 22.9356L1765.79 22.9641L1765.15 22.9841C1764.94 22.99 1764.73 22.9933 1764.51 22.9966L1763.86 23H1763.54L1762.88 22.99L1762.21 22.9716C1761.99 22.9632 1761.76 22.9548 1761.53 22.944L1760.85 22.9064C1760.73 22.8995 1760.62 22.8923 1760.5 22.8846L1759.8 22.8328L1759.09 22.7701L1758.36 22.6982L1757.62 22.6147L1756.87 22.5202L1756.11 22.414C1755.85 22.3766 1755.59 22.3376 1755.33 22.297L1754.53 22.1675L1753.72 22.0254C1753.44 21.9769 1753.17 21.9251 1752.89 21.8724L1752.04 21.7052L1751.18 21.5264L1750.74 21.4319L1749.84 21.2313C1749.69 21.1979 1749.54 21.1628 1749.39 21.1277L1748.46 20.907L1747.51 20.6729L1747.03 20.5509L1746.05 20.2951L1745.05 20.0251L1744.02 19.7393L1743.5 19.5913L1742.44 19.2821L1741.35 18.9586L1740.24 18.6184L1739.09 18.2623L1737.92 17.8895L1736.73 17.5L1735.5 17.0929L1734.24 16.6692L1732.96 16.2278L1731.64 15.7681L1730.29 15.2908L1728.9 14.7943L1535.18 -55.6272L1534.89 -54.8281C1523.12 -24.0917 1489.01 -8.21115 1457.88 -18.9687L1457 -19.2796C1468.76 -35.6392 1478.54 -53.8192 1485.88 -73.6032L1486.13 -73.5155L1548.15 -243.697L1548.91 -245.769L1549.67 -247.757L1550.16 -249.038L1550.65 -250.282L1551.13 -251.492L1551.6 -252.669L1552.07 -253.812C1552.23 -254.188 1552.38 -254.558 1552.54 -254.924L1553 -256.003L1553.45 -257.052L1553.9 -258.07L1554.35 -259.06L1554.57 -259.544L1555.01 -260.49L1555.23 -260.953L1555.67 -261.858L1556.1 -262.737L1556.53 -263.59L1556.96 -264.419L1557.17 -264.824L1557.59 -265.617L1557.81 -266.004L1558.23 -266.762C1558.37 -267.011 1558.51 -267.256 1558.65 -267.498L1559.06 -268.213L1559.27 -268.562L1559.69 -269.247L1560.1 -269.912L1560.31 -270.238L1560.72 -270.874L1560.93 -271.186L1561.35 -271.796C1561.48 -271.998 1561.62 -272.196 1561.76 -272.392L1562.18 -272.97L1562.59 -273.534C1562.66 -273.626 1562.73 -273.719 1562.8 -273.81L1563.22 -274.353L1563.43 -274.62L1563.85 -275.143L1564.27 -275.654L1564.48 -275.905L1564.91 -276.4L1565.33 -276.884L1565.76 -277.359L1566.19 -277.825L1566.63 -278.283L1567.07 -278.734L1567.51 -279.178L1567.96 -279.617L1568.41 -280.05L1569.09 -280.693L1569.79 -281.328L1570.02 -281.538C1577.86 -288.547 1587.19 -292.892 1597.6 -294.379L1598.21 -294.465L1599.14 -294.584L1599.75 -294.656L1600.68 -294.752L1601.3 -294.809L1601.92 -294.859L1602.23 -294.88L1603.17 -294.936L1603.8 -294.964L1604.43 -294.984C1604.65 -294.99 1604.86 -294.994 1605.07 -294.997L1605.72 -295H1606.05L1606.71 -294.99L1607.38 -294.972C1607.6 -294.963 1607.83 -294.955 1608.05 -294.944L1608.74 -294.907L1609.08 -294.885L1609.79 -294.833L1610.5 -294.771L1611.22 -294.698L1611.96 -294.615L1612.71 -294.52L1613.48 -294.414C1613.74 -294.377 1614 -294.338 1614.26 -294.297L1615.06 -294.167L1615.87 -294.026C1616.14 -293.977 1616.42 -293.926 1616.7 -293.872L1617.55 -293.705L1618.41 -293.526L1618.85 -293.432L1619.75 -293.232L1620.2 -293.128L1621.13 -292.907L1622.07 -292.673L1622.55 -292.551L1623.53 -292.295C1623.86 -292.207 1624.2 -292.117 1624.54 -292.025L1625.56 -291.739L1626.08 -291.591L1627.15 -291.282L1628.24 -290.959L1629.35 -290.618L1630.49 -290.262L1631.66 -289.89L1632.86 -289.5L1634.09 -289.093L1635.34 -288.669L1636.63 -288.228L1637.95 -287.768L1639.3 -287.291L1640.68 -286.795L1815.63 -223.197L1817.03 -222.684L1817.71 -222.43L1819.7 -221.678L1820.98 -221.186L1822.23 -220.699L1823.44 -220.219L1824.62 -219.744L1825.76 -219.274L1826.87 -218.81L1827.95 -218.351L1829 -217.896L1830.02 -217.445L1831.01 -216.999L1831.98 -216.557L1832.91 -216.118L1833.82 -215.683L1834.7 -215.25L1835.55 -214.821L1836.38 -214.395L1837.19 -213.971L1837.97 -213.548C1838.22 -213.408 1838.48 -213.268 1838.73 -213.129L1839.46 -212.71L1840.18 -212.292L1840.53 -212.085L1841.21 -211.669L1841.88 -211.255L1842.53 -210.84L1843.16 -210.427L1843.77 -210.012C1843.97 -209.874 1844.17 -209.736 1844.36 -209.598L1844.94 -209.184L1845.51 -208.768L1846.06 -208.351L1846.33 -208.142L1846.86 -207.724L1847.37 -207.305L1847.88 -206.882L1848.38 -206.458L1848.62 -206.246L1849.1 -205.818L1849.57 -205.387L1850.03 -204.953L1850.49 -204.516L1850.94 -204.076L1851.38 -203.632L1851.81 -203.184L1852.25 -202.732L1852.89 -202.044L1853.52 -201.346Z" fill="#DADCDC" fill-opacity="0.4"/>
<path fill-rule="evenodd" clip-rule="evenodd" d="M1861.52 -192.346C1868.41 -184.671 1872.72 -175.557 1874.29 -165.395L1874.42 -164.496L1874.55 -163.563L1874.62 -162.942L1874.69 -162.321L1874.75 -161.699L1874.81 -161.075L1874.86 -160.449L1874.9 -159.821L1874.94 -159.188L1874.97 -158.551C1874.97 -158.444 1874.97 -158.338 1874.98 -158.231L1874.99 -157.585C1874.99 -157.477 1875 -157.369 1875 -157.26V-156.606C1875 -156.277 1874.99 -155.945 1874.99 -155.61L1874.97 -154.935L1874.95 -154.594L1874.92 -153.905L1874.88 -153.206L1874.82 -152.496L1874.76 -151.775L1874.68 -151.041L1874.59 -150.293L1874.55 -149.915L1874.44 -149.146L1874.33 -148.363C1874.27 -147.967 1874.2 -147.565 1874.13 -147.157L1873.98 -146.333L1873.82 -145.492L1873.65 -144.631L1873.47 -143.754C1873.4 -143.457 1873.34 -143.157 1873.27 -142.854L1873.06 -141.935L1872.94 -141.468L1872.71 -140.516L1872.46 -139.543L1872.2 -138.546L1871.92 -137.526L1871.62 -136.482L1871.31 -135.412L1870.99 -134.317L1870.64 -133.194L1870.28 -132.044L1869.91 -130.866C1869.85 -130.668 1869.78 -130.468 1869.72 -130.267L1869.31 -129.046L1868.89 -127.794L1868.46 -126.513L1868 -125.2L1867.53 -123.854L1867.04 -122.477L1866.53 -121.065L1829.7 -20.0116C1829.53 -19.5352 1829.35 -19.0654 1829.18 -18.6023L1828.42 -16.5595L1827.67 -14.5985L1827.18 -13.3364L1826.7 -12.1085L1826.22 -10.9157L1825.98 -10.3306L1825.51 -9.188L1825.05 -8.07632L1824.59 -6.9972L1824.13 -5.94819L1823.68 -4.93012L1823.24 -3.94047C1823.16 -3.77831 1823.09 -3.61698 1823.01 -3.45649L1822.57 -2.51031L1822.35 -2.04722L1821.92 -1.14198L1821.49 -0.262649L1821.06 0.589923L1820.63 1.4191L1820.42 1.82448L1819.99 2.61688L1819.78 3.0039L1819.36 3.76201L1819.15 4.13313L1818.73 4.85783L1818.31 5.56248L1818.11 5.90684L1817.69 6.58139L1817.48 6.91155L1817.07 7.55768L1816.86 7.87363L1816.45 8.49384L1816.24 8.79726L1815.83 9.39072C1815.76 9.48935 1815.69 9.58632 1815.62 9.68328L1815.2 10.2542L1814.79 10.8109L1814.37 11.3533L1814.16 11.6191L1813.74 12.1424L1813.32 12.6539L1812.89 13.1538L1812.47 13.6428C1812.4 13.7238 1812.33 13.8041 1812.25 13.8835L1811.82 14.3582L1811.39 14.8247L1810.96 15.2827L1810.52 15.7341L1810.07 16.1771L1809.63 16.6159L1809.18 17.0497L1808.49 17.6917L1807.8 18.3269C1807.72 18.3973 1807.64 18.4675 1807.56 18.5376C1799.73 25.5471 1790.4 29.8919 1779.99 31.3789L1779.37 31.465L1778.45 31.5837L1777.83 31.6556L1776.91 31.7517L1776.29 31.8077L1775.67 31.8579L1775.36 31.8805L1774.42 31.9356L1773.79 31.9641L1773.15 31.9841C1772.94 31.99 1772.73 31.9933 1772.51 31.9967L1771.86 32H1771.54L1770.88 31.99L1770.21 31.9716C1769.99 31.9632 1769.76 31.9548 1769.53 31.944L1768.85 31.9064C1768.73 31.8995 1768.62 31.8923 1768.5 31.8846L1767.8 31.8328L1767.09 31.7701L1766.36 31.6982L1765.62 31.6147L1764.87 31.5202L1764.11 31.4141C1763.85 31.3766 1763.59 31.3376 1763.33 31.297L1762.53 31.1675L1761.72 31.0254C1761.44 30.9769 1761.17 30.9251 1760.89 30.8724L1760.04 30.7052L1759.18 30.5264L1758.74 30.4319L1757.84 30.2313C1757.69 30.1979 1757.54 30.1628 1757.39 30.1277L1756.46 29.907L1755.51 29.673L1755.03 29.5509L1754.05 29.2951L1753.05 29.0251L1752.02 28.7393L1751.5 28.5913L1750.44 28.2821L1749.35 27.9586L1748.24 27.6184L1747.09 27.2623L1745.92 26.8895L1744.73 26.5L1743.5 26.0929L1742.24 25.6692L1740.96 25.2278L1739.64 24.7681L1738.29 24.2908L1736.9 23.7943L1543.18 -46.6272L1542.89 -45.8281C1531.12 -15.0917 1497.01 0.788868 1465.88 -9.96869L1465 -10.2796C1476.76 -26.6392 1486.54 -44.8192 1493.88 -64.6032L1494.13 -64.5155L1556.15 -234.697L1556.91 -236.769L1557.67 -238.757L1558.16 -240.038L1558.65 -241.282L1559.13 -242.492L1559.6 -243.669L1560.07 -244.812C1560.23 -245.188 1560.38 -245.558 1560.54 -245.924L1561 -247.003L1561.45 -248.052L1561.9 -249.07L1562.35 -250.06L1562.57 -250.544L1563.01 -251.49L1563.23 -251.953L1563.67 -252.858L1564.1 -253.737L1564.53 -254.59L1564.96 -255.419L1565.17 -255.824L1565.59 -256.617L1565.81 -257.004L1566.23 -257.762C1566.37 -258.011 1566.51 -258.256 1566.65 -258.498L1567.06 -259.213L1567.27 -259.562L1567.69 -260.247L1568.1 -260.912L1568.31 -261.238L1568.72 -261.874L1568.93 -262.186L1569.35 -262.796C1569.48 -262.998 1569.62 -263.196 1569.76 -263.392L1570.18 -263.97L1570.59 -264.534C1570.66 -264.626 1570.73 -264.719 1570.8 -264.81L1571.22 -265.353L1571.43 -265.62L1571.85 -266.143L1572.27 -266.654L1572.48 -266.905L1572.91 -267.4L1573.33 -267.884L1573.76 -268.359L1574.19 -268.825L1574.63 -269.283L1575.07 -269.734L1575.51 -270.178L1575.96 -270.617L1576.41 -271.05L1577.09 -271.693L1577.79 -272.328L1578.02 -272.538C1585.86 -279.547 1595.19 -283.892 1605.6 -285.379L1606.21 -285.465L1607.14 -285.584L1607.75 -285.656L1608.68 -285.752L1609.3 -285.809L1609.92 -285.859L1610.23 -285.88L1611.17 -285.936L1611.8 -285.964L1612.43 -285.984C1612.65 -285.99 1612.86 -285.994 1613.07 -285.997L1613.72 -286H1614.05L1614.71 -285.99L1615.38 -285.972C1615.6 -285.963 1615.83 -285.955 1616.05 -285.944L1616.74 -285.907L1617.08 -285.885L1617.79 -285.833L1618.5 -285.771L1619.22 -285.698L1619.96 -285.615L1620.71 -285.52L1621.48 -285.414C1621.74 -285.377 1622 -285.338 1622.26 -285.297L1623.06 -285.167L1623.87 -285.026C1624.14 -284.977 1624.42 -284.926 1624.7 -284.872L1625.55 -284.705L1626.41 -284.526L1626.85 -284.432L1627.75 -284.232L1628.2 -284.128L1629.13 -283.907L1630.07 -283.673L1630.55 -283.551L1631.53 -283.295C1631.86 -283.207 1632.2 -283.117 1632.54 -283.025L1633.56 -282.739L1634.08 -282.591L1635.15 -282.282L1636.24 -281.959L1637.35 -281.618L1638.49 -281.262L1639.66 -280.89L1640.86 -280.5L1642.09 -280.093L1643.34 -279.669L1644.63 -279.228L1645.95 -278.768L1647.3 -278.291L1648.68 -277.795L1823.63 -214.197L1825.03 -213.684L1825.71 -213.43L1827.7 -212.678L1828.98 -212.186L1830.23 -211.699L1831.44 -211.219L1832.62 -210.744L1833.76 -210.274L1834.87 -209.81L1835.95 -209.351L1837 -208.896L1838.02 -208.445L1839.01 -207.999L1839.98 -207.557L1840.91 -207.118L1841.82 -206.683L1842.7 -206.25L1843.55 -205.821L1844.38 -205.395L1845.19 -204.971L1845.97 -204.548C1846.22 -204.408 1846.48 -204.268 1846.73 -204.129L1847.46 -203.71L1848.18 -203.292L1848.53 -203.085L1849.21 -202.669L1849.88 -202.255L1850.53 -201.84L1851.16 -201.427L1851.77 -201.012C1851.97 -200.874 1852.17 -200.736 1852.36 -200.598L1852.94 -200.184L1853.51 -199.768L1854.06 -199.351L1854.33 -199.142L1854.86 -198.724L1855.37 -198.305L1855.88 -197.882L1856.38 -197.458L1856.62 -197.246L1857.1 -196.818L1857.57 -196.387L1858.03 -195.953L1858.49 -195.516L1858.94 -195.076L1859.38 -194.632L1859.81 -194.184L1860.25 -193.732L1860.89 -193.044L1861.52 -192.346V-192.346Z" stroke="black" stroke-opacity="0.08" stroke-width="0.835398" stroke-linecap="round" stroke-linejoin="round"/>
<path fill-rule="evenodd" clip-rule="evenodd" d="M1621.76 406.681C1703.06 389.404 1754.96 309.502 1737.68 228.216C1720.4 146.929 1640.48 95.0416 1559.18 112.319L1560.36 112.081L1560.31 111.859L1555.4 112.944C1470.49 132.433 1401.91 185.915 1361 255.912L1441.36 238.834C1439.02 255.673 1439.52 273.196 1443.26 290.785C1460.54 372.07 1540.46 423.959 1621.76 406.681Z" fill="white" fill-opacity="0.8"/>
<path fill-rule="evenodd" clip-rule="evenodd" d="M1624.94 423.684C1706.12 406.425 1757.94 326.607 1740.69 245.408C1723.43 164.207 1643.63 112.374 1562.46 129.634C1558.01 130.578 1553.61 131.722 1549.26 133.061C1468.17 153.979 1402.7 206.221 1363.15 273.935L1444.73 256.587C1442.49 273.232 1443.02 290.54 1446.71 307.91C1463.97 389.111 1543.76 440.944 1624.94 423.684H1624.94ZM1134.47 -108.27C1243.58 -137.513 1353.46 -81.2315 1379.89 17.4413C1406.32 116.114 1339.3 219.81 1230.19 249.055C1196.01 258.214 1161.76 258.984 1130.03 252.69C1110.03 280.417 1080.79 301.653 1045.3 311.166C1036.84 313.436 1028.21 314.981 1019.49 315.785C1038.3 283.602 1044.82 244.146 1034.64 205.143C1011.03 183.437 993.419 155.665 984.761 123.344C958.329 24.6712 1025.35 -79.0252 1134.47 -108.27V-108.27Z" stroke="black" stroke-opacity="0.08" stroke-width="0.835398" stroke-linecap="round" stroke-linejoin="round"/>
<path fill-rule="evenodd" clip-rule="evenodd" d="M189.188 446.511C76.3158 409.869 14.7756 288.035 51.7362 174.386C55.6257 162.409 60.5401 150.788 66.4249 139.653C125.297 12.6338 270.612 -53.4298 406.422 -9.34226C453.48 5.93391 493.682 32.5807 525 66.5966C486.994 64.8974 450.11 77.8646 421.547 101.804C467.142 156.872 484.354 233.681 460.485 307.077C423.524 420.725 302.061 483.152 189.188 446.511Z" fill="white" fill-opacity="0.8"/>
<path fill-rule="evenodd" clip-rule="evenodd" d="M200.805 460.438C87.5986 423.679 25.7611 301.81 62.687 188.238C66.8128 175.528 72.0979 163.224 78.4755 151.48C137.884 26.38 282.529 -38.1883 417.979 5.79453C465.182 21.1222 505.536 47.7712 537 81.7501C499.016 79.9844 462.18 92.7516 433.634 116.421C479.211 171.502 496.442 248.152 472.641 321.356C435.715 434.928 314.01 497.198 200.805 460.438Z" stroke="black" stroke-opacity="0.08" stroke-width="0.835398" stroke-linecap="round" stroke-linejoin="round"/>
<path fill-rule="evenodd" clip-rule="evenodd" d="M313.319 4.96302C256.477 -14.6189 194.533 15.6089 174.96 72.477C155.584 128.778 185.002 190.085 240.746 210.306L241.928 210.723L241.858 210.926L245.306 212.082C305.2 231.638 367.608 224.099 419 196.049L362.436 176.563C370.246 166.933 376.532 155.796 380.801 143.391C400.373 86.521 370.16 24.5449 313.319 4.96385V4.96302Z" fill="#DADCDC" fill-opacity="0.4"/>
<path fill-rule="evenodd" clip-rule="evenodd" d="M301.99 4.96306C244.884 -14.619 182.651 15.6091 162.987 72.4775C143.325 129.348 173.678 191.323 230.784 210.905C232.359 211.446 233.939 211.949 235.522 212.413L234.498 212.082C294.671 231.638 357.37 224.099 409 196.048L351.518 176.338C359.279 166.76 365.53 155.699 369.786 143.39C389.449 86.52 359.096 24.5434 301.99 4.96223V4.96306Z" stroke="black" stroke-opacity="0.08" stroke-width="0.835398" stroke-linecap="round" stroke-linejoin="round"/>
<path fill-rule="evenodd" clip-rule="evenodd" d="M642.178 -157.061C660.118 -270.253 784.027 -344.702 918.94 -323.347C932.609 -321.189 946.111 -318.075 959.344 -314.026C1092.19 -273.974 1178.99 -146.939 1157.83 -13.3706C1146.43 58.536 1105.86 118.978 1049.18 159C1061.32 141.584 1069.8 121.208 1073.35 98.819C1077.09 75.2192 1074.92 52.0553 1067.94 30.8429C1015.39 76.6955 936.753 99.6582 853.977 86.5565C719.064 65.2021 624.24 -43.8694 642.178 -157.061Z" fill="#DADCDC" fill-opacity="0.4"/>
<path fill-rule="evenodd" clip-rule="evenodd" d="M660.178 -163.061C678.118 -276.253 802.027 -350.702 936.94 -329.347C950.609 -327.189 964.111 -324.075 977.344 -320.026C1110.19 -279.974 1196.99 -152.939 1175.83 -19.3706C1164.43 52.536 1123.86 112.978 1067.18 153C1079.32 135.584 1087.8 115.208 1091.35 92.819C1095.09 69.2192 1092.92 46.0553 1085.94 24.8429C1033.39 70.6955 954.753 93.6582 871.977 80.5565C737.064 59.2021 642.24 -49.8694 660.178 -163.061Z" stroke="black" stroke-opacity="0.08" stroke-width="0.835398" stroke-linecap="round" stroke-linejoin="round"/>
</g>
<defs>
<linearGradient id="paint0_linear" x1="937.5" y1="0" x2="937.5" y2="472" gradientUnits="userSpaceOnUse">
<stop stop-color="#F3F3F3"/>
<stop offset="1" stop-color="#F3F3F3" stop-opacity="0"/>
</linearGradient>
<clipPath id="clip0">
<rect width="1875" height="472" fill="white"/>
</clipPath>
</defs>
</svg>
