<svg xmlns="http://www.w3.org/2000/svg" width="72" height="49" viewBox="0 0 72 49">
    <g fill="none">
        <path fill="#F0F0F0" d="M0 0.047H71.395V48.340999999999994H0z"/>
        <path fill="#D80027" d="M40.16 0.047L31.235 0.047 31.235 19.666 0 19.666 0 28.721 31.235 28.721 31.235 48.34 40.16 48.34 40.16 28.721 71.395 28.721 71.395 19.666 40.16 19.666z"/>
        <g fill="#0052B4">
            <path d="M11.544.051L28.028 9.343 28.028.051zM.091.051L28.028 15.798 28.028 11.345 7.991.051zM20.587 15.798L.091 4.244.091 15.798z" transform="translate(43.367 32.541)"/>
        </g>
        <path fill="#F0F0F0" d="M43.458 32.592L71.395 48.34 71.395 43.887 51.358 32.592z"/>
        <path fill="#D80027" d="M43.458 32.592L71.395 48.34 71.395 43.887 51.358 32.592z"/>
        <g fill="#0052B4">
            <path d="M12.597.05L0 7.151 0 .05zM27.937 2.053L27.937 15.798 3.555 15.798z" transform="translate(0 32.541)"/>
        </g>
        <path fill="#D80027" d="M20.037 32.592L0 43.887 0 48.34 0 48.34 27.937 32.592z"/>
        <g fill="#0052B4">
            <path d="M16.484 15.794L0 6.502 0 15.794zM27.937 15.794L0 .047 0 4.5 20.037 15.794zM7.442.047L27.937 11.601 27.937.047z"/>
        </g>
        <path fill="#F0F0F0" d="M27.937 15.794L0 0.047 0 4.5 20.037 15.794z"/>
        <path fill="#D80027" d="M27.937 15.794L0 0.047 0 4.5 20.037 15.794z"/>
        <g fill="#0052B4">
            <path d="M15.431 15.795L28.028 8.694 28.028 15.795zM.091 13.792L.091.047 24.474.047z" transform="translate(43.367)"/>
        </g>
        <path fill="#D80027" d="M51.358 15.794L71.395 4.5 71.395 0.047 71.395 0.047 43.458 15.794z"/>
    </g>
</svg>
