<svg xmlns="http://www.w3.org/2000/svg" width="73" height="48" viewBox="0 0 73 48">
    <g fill="none">
        <path fill="#F5F5F5" d="M71.601 47.96H1.256C.563 47.96 0 47.397 0 46.7V1.3C0 .605.563.04 1.256.04h70.346c.693 0 1.256.564 1.256 1.26v45.4c0 .696-.563 1.26-1.257 1.26z"/>
        <g fill="#FF4B55">
            <path d="M72.858 3.726H0V1.3C0 .604.563.039 1.256.039h70.346c.693 0 1.256.565 1.256 1.262v2.425zM0 14.784H72.858V18.47H0zM0 7.412H72.858V11.097999999999999H0zM72.858 25.843H1.256C.563 25.843 0 25.28 0 24.583v-2.426h72.858v3.686zM0 36.903H72.858V40.589H0zM71.601 47.96H1.256C.563 47.96 0 47.397 0 46.7v-2.426h72.858V46.7c0 .696-.563 1.26-1.257 1.26zM0 29.53H72.858V33.216H0z"/>
        </g>
        <path fill="#41479B" d="M32.66.04H1.256C.563.04 0 .604 0 1.3v23.282c0 .696.563 1.261 1.256 1.261H32.66c.694 0 1.257-.565 1.257-1.261V1.301c0-.697-.563-1.261-1.257-1.261z"/>
        <g fill="#F5F5F5">
            <path d="M1.535.22l.278.837.88.007c.113 0 .16.146.069.214l-.707.524.265.842c.034.109-.09.199-.182.132l-.715-.513-.715.513c-.093.067-.216-.023-.182-.132l.265-.841-.707-.525c-.091-.068-.044-.213.07-.214l.879-.007L1.31.22c.036-.109.188-.109.224 0zM1.535 4.599l.278.837.88.007c.113 0 .16.146.069.214l-.707.525.265.84c.034.11-.09.2-.182.133l-.715-.513-.715.514c-.093.066-.216-.024-.182-.133l.265-.841-.707-.525c-.091-.068-.044-.213.07-.214l.879-.007.278-.837c.036-.108.188-.108.224 0zM1.535 8.978l.278.837.88.007c.113 0 .16.147.069.214l-.707.525.265.841c.034.109-.09.2-.182.133l-.715-.513-.715.513c-.093.066-.216-.024-.182-.133l.265-.841-.707-.524c-.091-.068-.044-.214.07-.215l.879-.007.278-.837c.036-.108.188-.108.224 0zM1.535 13.357l.278.837.88.007c.113.001.16.147.069.215l-.707.524.265.841c.034.11-.09.2-.182.133l-.715-.513-.715.513c-.093.066-.216-.024-.182-.133l.265-.84-.707-.525c-.091-.068-.044-.214.07-.215l.879-.006.278-.838c.036-.108.188-.108.224 0zM1.535 17.736l.278.838.88.006c.113.001.16.147.069.215l-.707.524.265.841c.034.11-.09.2-.182.133l-.715-.513-.715.513c-.093.067-.216-.024-.182-.132l.265-.842-.707-.524c-.091-.068-.044-.214.07-.215l.879-.006.278-.837c.036-.11.188-.11.224 0zM4.921 2.367l.278.837.88.007c.113 0 .16.146.069.214l-.708.524.266.842c.034.109-.09.199-.182.132l-.715-.513-.715.513C4 4.99 3.878 4.9 3.912 4.791l.265-.842-.707-.524c-.092-.068-.044-.213.07-.214l.878-.007.278-.837c.036-.109.189-.109.225 0zM4.921 6.746l.278.837.88.007c.113 0 .16.147.069.214l-.708.525.266.841c.034.109-.09.2-.182.133l-.715-.514-.715.514c-.093.066-.216-.024-.182-.133l.265-.841-.707-.525c-.092-.068-.044-.213.07-.214l.878-.007.278-.837c.036-.108.189-.108.225 0zM4.921 11.125l.278.837.88.007c.113.001.16.147.069.215l-.708.524.266.841c.034.109-.09.2-.182.133l-.715-.513-.715.513c-.093.066-.216-.024-.182-.133l.265-.841-.707-.524c-.092-.068-.044-.214.07-.215l.878-.007.278-.837c.036-.108.189-.108.225 0zM4.921 15.504l.278.837.88.007c.113.001.16.147.069.215l-.708.524.266.841c.034.11-.09.2-.182.133l-.715-.513-.715.513c-.093.066-.216-.024-.182-.133l.265-.841-.707-.524c-.092-.068-.044-.214.07-.215l.878-.007.278-.837c.036-.108.189-.108.225 0zM8.307.22l.278.837.879.007c.114 0 .16.146.07.214l-.708.524.265.842c.035.109-.089.199-.181.132l-.716-.513-.715.513c-.092.067-.216-.023-.181-.132l.265-.842-.707-.524c-.092-.068-.045-.213.07-.214l.878-.007.278-.837c.036-.109.189-.109.225 0zM8.307 4.599l.278.837.879.007c.114 0 .16.146.07.214l-.708.525.265.84c.035.11-.089.2-.181.133l-.716-.513-.715.513c-.092.067-.216-.023-.181-.132l.265-.841-.707-.525c-.092-.068-.045-.213.07-.214l.878-.007.278-.837c.036-.108.189-.108.225 0zM8.307 8.978l.278.837.879.007c.114 0 .16.147.07.214l-.708.525.265.841c.035.109-.089.2-.181.133l-.716-.514-.715.514c-.092.066-.216-.024-.181-.133l.265-.841-.707-.525c-.092-.068-.045-.213.07-.214l.878-.007.278-.837c.036-.108.189-.108.225 0zM8.307 13.357l.278.837.879.007c.114.001.16.147.07.215l-.708.524.265.841c.035.11-.089.2-.181.133l-.716-.513-.715.513c-.092.066-.216-.024-.181-.133l.265-.841-.707-.524c-.092-.068-.045-.214.07-.215l.878-.007.278-.837c.036-.108.189-.108.225 0zM8.307 17.736l.278.838.879.006c.114.001.16.147.07.215l-.708.524.265.841c.035.11-.089.2-.181.133l-.716-.513-.715.513c-.092.066-.216-.024-.181-.133l.265-.84-.707-.525c-.092-.068-.045-.214.07-.215l.878-.006.278-.838c.036-.108.189-.108.225 0zM11.693 2.367l.278.837.879.007c.114 0 .16.146.07.214l-.708.524.265.842c.035.109-.089.199-.182.132l-.715-.513-.715.513c-.092.067-.216-.023-.182-.132l.266-.842-.707-.524c-.092-.068-.045-.213.07-.214l.878-.007.278-.837c.036-.109.189-.109.225 0zM11.693 6.746l.278.837.879.007c.114 0 .16.147.07.214l-.708.525.265.841c.035.109-.089.2-.182.133l-.715-.514-.715.514c-.092.066-.216-.024-.182-.133l.266-.841-.707-.525c-.092-.068-.045-.213.07-.214l.878-.007.278-.837c.036-.108.189-.108.225 0zM11.693 11.125l.278.837.879.007c.114.001.16.147.07.215l-.708.524.265.841c.035.109-.089.2-.182.133l-.715-.513-.715.513c-.092.066-.216-.024-.182-.133l.266-.841-.707-.524c-.092-.068-.045-.214.07-.215l.878-.007.278-.837c.036-.108.189-.108.225 0zM11.693 15.504l.278.837.879.007c.114.001.16.147.07.215l-.708.524.265.841c.035.11-.089.2-.182.133l-.715-.513-.715.513c-.092.066-.216-.024-.182-.133l.266-.841-.707-.524c-.092-.068-.045-.214.07-.215l.878-.007.278-.837c.036-.108.189-.108.225 0zM15.078.22l.278.837.88.007c.113 0 .16.146.069.214l-.707.524.265.842c.034.109-.09.199-.182.132l-.715-.513-.715.513c-.093.067-.216-.023-.182-.132l.265-.842-.707-.524c-.091-.068-.044-.213.07-.214l.879-.007.278-.837c.036-.109.188-.109.224 0zM15.078 4.599l.278.837.88.007c.113 0 .16.146.069.214l-.707.525.265.84c.034.11-.09.2-.182.133l-.715-.513-.715.513c-.093.067-.216-.023-.182-.132l.265-.841-.707-.525c-.091-.068-.044-.213.07-.214l.879-.007.278-.837c.036-.108.188-.108.224 0zM15.078 8.978l.278.837.88.007c.113 0 .16.147.069.214l-.707.525.265.841c.034.109-.09.2-.182.133l-.715-.514-.715.514c-.093.066-.216-.024-.182-.133l.265-.841-.707-.525c-.091-.068-.044-.213.07-.214l.879-.007.278-.837c.036-.108.188-.108.224 0zM15.078 13.357l.278.837.88.007c.113.001.16.147.069.215l-.707.524.265.841c.034.11-.09.2-.182.133l-.715-.513-.715.513c-.093.066-.216-.024-.182-.133l.265-.841-.707-.524c-.091-.068-.044-.214.07-.215l.879-.007.278-.837c.036-.108.188-.108.224 0zM15.078 17.736l.278.838.88.006c.113.001.16.147.069.215l-.707.524.265.841c.034.11-.09.2-.182.133l-.715-.513-.715.513c-.093.066-.216-.024-.182-.133l.265-.84-.707-.525c-.091-.068-.044-.214.07-.215l.879-.006.278-.838c.036-.108.188-.108.224 0zM18.464 2.367l.278.837.88.007c.113 0 .16.146.069.214l-.707.524.265.842c.034.109-.09.199-.182.132l-.715-.513-.715.513c-.093.067-.216-.023-.182-.132l.265-.842-.707-.524c-.091-.068-.044-.213.07-.214l.879-.007.278-.837c.036-.109.188-.109.224 0zM18.464 6.746l.278.837.88.007c.113 0 .16.147.069.214l-.707.525.265.841c.034.109-.09.2-.182.133l-.715-.514-.715.514c-.093.066-.216-.024-.182-.133l.265-.841-.707-.525c-.091-.068-.044-.213.07-.214l.879-.007.278-.837c.036-.108.188-.108.224 0zM18.464 11.125l.278.837.88.007c.113.001.16.147.069.215l-.707.524.265.841c.034.109-.09.2-.182.133l-.715-.513-.715.513c-.093.066-.216-.024-.182-.133l.265-.841-.707-.524c-.091-.068-.044-.214.07-.215l.879-.007.278-.837c.036-.108.188-.108.224 0zM18.464 15.504l.278.837.88.007c.113.001.16.147.069.215l-.707.524.265.841c.034.11-.09.2-.182.133l-.715-.513-.715.513c-.093.066-.216-.024-.182-.133l.265-.841-.707-.524c-.091-.068-.044-.214.07-.215l.879-.007.278-.837c.036-.108.188-.108.224 0zM21.85.22l.278.837.88.007c.113 0 .16.146.069.214l-.708.524.266.842c.034.109-.09.199-.182.132l-.715-.513-.715.513c-.093.067-.216-.023-.182-.132l.265-.842-.707-.524c-.091-.068-.044-.213.07-.214l.878-.007.279-.837c.035-.109.188-.109.224 0zM21.85 4.599l.278.837.88.007c.113 0 .16.146.069.214l-.708.525.266.84c.034.11-.09.2-.182.133l-.715-.513-.715.513c-.093.067-.216-.023-.182-.132l.265-.841-.707-.525c-.091-.068-.044-.213.07-.214l.878-.007.279-.837c.035-.108.188-.108.224 0zM21.85 8.978l.278.837.88.007c.113 0 .16.147.069.214l-.708.525.266.841c.034.109-.09.2-.182.133l-.715-.514-.715.514c-.093.066-.216-.024-.182-.133l.265-.841-.707-.525c-.091-.068-.044-.213.07-.214l.878-.007.279-.837c.035-.108.188-.108.224 0zM21.85 13.357l.278.837.88.007c.113.001.16.147.069.215l-.708.524.266.841c.034.11-.09.2-.182.133l-.715-.513-.715.513c-.093.066-.216-.024-.182-.133l.265-.841-.707-.524c-.091-.068-.044-.214.07-.215l.878-.007.279-.837c.035-.108.188-.108.224 0zM21.85 17.736l.278.838.88.006c.113.001.16.147.069.215l-.708.524.266.841c.034.11-.09.2-.182.133l-.715-.513-.715.513c-.093.066-.216-.024-.182-.133l.265-.84-.707-.525c-.091-.068-.044-.214.07-.215l.878-.006.279-.838c.035-.108.188-.108.224 0zM25.236 2.367l.278.837.879.007c.114 0 .16.146.07.214l-.708.524.265.842c.035.109-.089.199-.181.132l-.715-.513-.716.513c-.092.067-.216-.023-.181-.132l.265-.842-.707-.524c-.092-.068-.045-.213.07-.214l.878-.007.278-.837c.036-.109.189-.109.225 0zM25.236 6.746l.278.837.879.007c.114 0 .16.147.07.214l-.708.525.265.841c.035.109-.089.2-.181.133l-.715-.514-.716.514c-.092.066-.216-.024-.181-.133l.265-.841-.707-.525c-.092-.068-.045-.213.07-.214l.878-.007.278-.837c.036-.108.189-.108.225 0zM25.236 11.125l.278.837.879.007c.114.001.16.147.07.215l-.708.524.265.841c.035.109-.089.2-.181.133l-.715-.513-.716.513c-.092.066-.216-.024-.181-.133l.265-.841-.707-.524c-.092-.068-.045-.214.07-.215l.878-.007.278-.837c.036-.108.189-.108.225 0zM25.236 15.504l.278.837.879.007c.114.001.16.147.07.215l-.708.524.265.841c.035.11-.089.2-.181.133l-.715-.513-.716.513c-.092.066-.216-.024-.181-.133l.265-.841-.707-.524c-.092-.068-.045-.214.07-.215l.878-.007.278-.837c.036-.108.189-.108.225 0zM28.622.22l.278.837.879.007c.114 0 .16.146.07.214l-.708.524.265.842c.035.109-.089.199-.182.132l-.715-.513-.715.513c-.092.067-.216-.023-.182-.132l.266-.842-.707-.524c-.092-.068-.045-.213.07-.214l.878-.007.278-.837c.036-.109.189-.109.225 0zM28.622 4.599l.278.837.879.007c.114 0 .16.146.07.214l-.708.525.265.84c.035.11-.089.2-.182.133l-.715-.513-.715.513c-.092.067-.216-.023-.182-.132l.266-.841-.707-.525c-.092-.068-.045-.213.07-.214l.878-.007.278-.837c.036-.108.189-.108.225 0zM28.622 8.978l.278.837.879.007c.114 0 .16.147.07.214l-.708.525.265.841c.035.109-.089.2-.182.133l-.715-.514-.715.514c-.092.066-.216-.024-.182-.133l.266-.841-.707-.525c-.092-.068-.045-.213.07-.214l.878-.007.278-.837c.036-.108.189-.108.225 0zM28.622 13.357l.278.837.879.007c.114.001.16.147.07.215l-.708.524.265.841c.035.11-.089.2-.182.133l-.715-.513-.715.513c-.092.066-.216-.024-.182-.133l.266-.841-.707-.524c-.092-.068-.045-.214.07-.215l.878-.007.278-.837c.036-.108.189-.108.225 0zM28.622 17.736l.278.838.879.006c.114.001.16.147.07.215l-.708.524.265.841c.035.11-.089.2-.182.133l-.715-.513-.715.513c-.092.066-.216-.024-.182-.133l.266-.84-.707-.525c-.092-.068-.045-.214.07-.215l.878-.006.278-.838c.036-.108.189-.108.225 0z" transform="translate(1.992 2.714)"/>
        </g>
    </g>
</svg>
