<svg xmlns="http://www.w3.org/2000/svg" width="73" height="48" viewBox="0 0 73 48">
    <g fill="none">
        <g fill="#F5F5F5">
            <path d="M71.601 47.96H1.256C.563 47.96 0 47.396 0 46.7V1.3C0 .604.563.04 1.256.04h70.346c.693 0 1.256.565 1.256 1.261v45.4c0 .696-.563 1.26-1.257 1.26z"/>
            <path d="M16.33 0.04H56.527V47.961H16.33z"/>
        </g>
        <g fill="#FF4B55">
            <path d="M1.256.04C.563.04 0 .603 0 1.3v45.4c0 .696.563 1.26 1.256 1.26H16.33V.04H1.256zM71.601.04H56.527v47.92h15.074c.694 0 1.257-.564 1.257-1.26V1.3c0-.696-.563-1.26-1.257-1.26zM44.052 29.537l7.454-4.276-1.71-.859c-.48-.24-.755-.76-.684-1.294l.557-4.19-3.156.922c-.697.204-1.42-.226-1.578-.938l-.302-1.371-2.963 3.481c-.41.483-1.193.114-1.086-.512l1.265-7.387-1.937.532c-.566.156-1.164-.103-1.44-.622l-2.04-3.84v-.005l-.001.003-.002-.003v.006l-2.04 3.839c-.276.52-.874.778-1.44.622l-1.937-.532 1.265 7.387c.107.626-.675.994-1.086.512l-2.963-3.481-.302 1.371c-.157.712-.88 1.142-1.578.938l-3.156-.921.557 4.189c.07.533-.204 1.053-.683 1.294l-1.71.859 7.453 4.276c.772.443 1.11 1.382.8 2.219l-.638 1.71 6.387-.547c.354-.03.654.256.644.611l-.201 6.864h1.256l-.201-6.864c-.01-.356.29-.641.644-.611l6.39.548-.637-1.711c-.312-.837.027-1.776.799-2.22z"/>
        </g>
    </g>
</svg>
